<svg width="56" height="56" viewBox="0 0 56 56" fill="none" xmlns="http://www.w3.org/2000/svg">
<path d="M20.0145 22.414L10.7587 22.4906C10.3478 22.494 10.0112 22.6289 9.74913 22.8954C9.48702 23.1619 9.35767 23.5006 9.36107 23.9115L9.42635 31.8015C9.42975 32.2124 9.5647 32.549 9.83118 32.8111C10.0977 33.0732 10.4364 33.2025 10.8473 33.1991L20.1031 33.1226L20.0145 22.414ZM22.2871 20.1034L32.9957 20.0148L32.9191 10.7591C32.9157 10.3481 32.7807 10.0116 32.5143 9.74949C32.2478 9.48738 31.9091 9.35802 31.4981 9.36142L23.6082 9.42671C23.1972 9.43011 22.8607 9.56505 22.5986 9.83153C22.3365 10.098 22.2071 10.4367 22.2105 10.8477L22.2871 20.1034ZM22.306 22.395L22.3947 33.1036L33.1032 33.015L33.0146 22.3064L22.306 22.395ZM22.4136 35.3952L22.4906 44.6945C22.494 45.1054 22.6289 45.4419 22.8954 45.7041C23.1619 45.9662 23.5006 46.0955 23.9116 46.0921L33.2108 46.0152L33.1222 35.3066L22.4136 35.3952ZM35.4138 35.2876L35.5024 45.9962L44.8017 45.9193C45.2126 45.9159 45.5492 45.7809 45.8113 45.5144C46.0734 45.248 46.2027 44.9092 46.1993 44.4983L46.1341 36.6083C46.1307 36.1974 45.9957 35.8608 45.7292 35.5987C45.4627 35.3366 45.124 35.2073 44.7131 35.2107L35.4138 35.2876ZM19.9955 20.1224L19.9189 10.8667C19.9105 9.84919 20.2654 8.97539 20.9835 8.24526C21.7032 7.51358 22.5725 7.14353 23.5915 7.1351L31.4814 7.06981C32.4989 7.0614 33.3727 7.41702 34.1028 8.1367C34.8345 8.85484 35.2046 9.72264 35.213 10.7401L35.3971 32.996L44.6941 32.9191C45.7116 32.9107 46.5854 33.2655 47.3155 33.9837C48.0472 34.7033 48.4172 35.5719 48.4256 36.5894L48.4909 44.4793C48.4993 45.4968 48.1437 46.3706 47.424 47.1007C46.7059 47.8324 45.8381 48.2024 44.8206 48.2109L23.9305 48.3837C22.913 48.3921 22.0392 48.0365 21.3091 47.3168C20.5774 46.5987 20.2074 45.7309 20.199 44.7134L20.122 35.4141L10.8663 35.4907C9.84884 35.4992 8.97503 35.1435 8.24489 34.4239C7.51322 33.7057 7.14318 32.8379 7.13477 31.8204L7.06948 23.9305C7.06106 22.913 7.41669 22.0392 8.13637 21.3091C8.8545 20.5774 9.72231 20.2074 10.7398 20.199L19.9955 20.1224Z" fill="black"/>
</svg>
