<svg width="20" height="20" viewBox="0 0 20 20" fill="none" xmlns="http://www.w3.org/2000/svg">
<path d="M9.99996 19.3334C7.3944 19.3334 5.18746 18.4292 3.37913 16.6209C1.57079 14.8125 0.666626 12.6056 0.666626 10C0.666626 7.39446 1.57079 5.18752 3.37913 3.37919C5.18746 1.57085 7.3944 0.666687 9.99996 0.666687C11.3416 0.666687 12.625 0.943576 13.85 1.49735C15.075 2.05113 16.125 2.84369 17 3.87502V0.666687H19.3333V8.83335H11.1666V6.50002H16.0666C15.4444 5.41113 14.5939 4.55558 13.5151 3.93335C12.4363 3.31113 11.2646 3.00002 9.99996 3.00002C8.05551 3.00002 6.40274 3.68058 5.04163 5.04169C3.68051 6.4028 2.99996 8.05558 2.99996 10C2.99996 11.9445 3.68051 13.5972 5.04163 14.9584C6.40274 16.3195 8.05551 17 9.99996 17C11.4972 17 12.8486 16.5722 14.0541 15.7167C15.2597 14.8611 16.1055 13.7334 16.5916 12.3334H19.0416C18.4972 14.3945 17.3888 16.0764 15.7166 17.3792C14.0444 18.682 12.1388 19.3334 9.99996 19.3334Z" fill="white"/>
</svg>
